<svg xmlns="http://www.w3.org/2000/svg" xmlns:xlink="http://www.w3.org/1999/xlink" width="1920" zoomAndPan="magnify" viewBox="0 0 1440 809.999993" height="1080" preserveAspectRatio="xMidYMid meet" version="1.0"><defs><g/><clipPath id="9b7a08d928"><path d="M 81 243 L 515.25 243 L 515.25 567 L 81 567 Z M 81 243 " clip-rule="nonzero"/></clipPath><clipPath id="bebccf4ba1"><rect x="0" width="286" y="0" height="112"/></clipPath></defs><path fill="#fefdeb" d="M 445.535156 353.214844 L 447.164062 353.277344 L 446.8125 354.867188 C 441.542969 378.617188 410.394531 392.035156 385.367188 402.816406 C 370.277344 409.316406 354.296875 413.929688 337.875 416.53125 L 333.742188 417.183594 L 336.699219 414.226562 L 365.746094 385.1875 C 366.492188 384.441406 366.539062 383.222656 365.855469 382.421875 C 365.46875 381.96875 364.898438 381.707031 364.300781 381.707031 C 363.871094 381.707031 363.457031 381.839844 363.105469 382.097656 C 350.007812 391.605469 335.992188 398.300781 321.449219 402.003906 C 312.101562 404.382812 302.257812 405.585938 292.191406 405.585938 C 268.8125 405.585938 244.089844 399.234375 218.707031 386.699219 L 215.917969 385.324219 L 218.824219 384.210938 C 226.398438 381.316406 233.789062 377.808594 240.789062 373.78125 C 247.488281 369.929688 253.964844 365.535156 260.03125 360.71875 C 260.457031 360.382812 260.730469 359.898438 260.789062 359.359375 C 260.851562 358.820312 260.699219 358.285156 260.363281 357.859375 C 259.976562 357.367188 259.390625 357.085938 258.765625 357.085938 C 258.304688 357.085938 257.867188 357.238281 257.5 357.527344 C 251.589844 362.21875 245.285156 366.5 238.761719 370.25 C 230.15625 375.199219 220.988281 379.324219 211.53125 382.507812 L 210.96875 382.695312 L 210.449219 382.414062 C 207.78125 380.964844 205.074219 379.429688 202.40625 377.847656 C 163.429688 354.742188 125.082031 318.257812 91.507812 272.328125 L 89.320312 269.339844 L 92.921875 270.207031 C 114.867188 275.488281 136.691406 278.167969 157.789062 278.167969 C 166.144531 278.167969 174.515625 277.746094 182.667969 276.910156 C 229.65625 272.097656 266.769531 263.675781 284.714844 259.078125 L 285.15625 258.96875 L 285.578125 259.144531 C 295.171875 263.171875 303.796875 268.875 311.207031 276.089844 C 317.984375 282.691406 323.539062 290.367188 327.71875 298.90625 C 328.0625 299.609375 328.765625 300.046875 329.550781 300.046875 C 329.863281 300.046875 330.160156 299.980469 330.441406 299.835938 C 330.929688 299.597656 331.296875 299.183594 331.476562 298.667969 C 331.652344 298.15625 331.617188 297.601562 331.375 297.113281 C 326.996094 288.160156 321.167969 280.105469 314.050781 273.171875 C 308.234375 267.503906 301.652344 262.691406 294.492188 258.867188 L 291.546875 257.300781 L 294.75 256.367188 C 295.257812 256.21875 295.546875 256.132812 295.605469 256.113281 C 297.128906 255.652344 298.636719 255.191406 300.128906 254.734375 C 310.539062 251.535156 320.375 248.511719 329.707031 248.511719 C 335.363281 248.511719 340.449219 249.609375 345.253906 251.867188 C 357.785156 257.757812 366.941406 270.617188 372.46875 290.078125 C 372.714844 290.953125 373.519531 291.5625 374.429688 291.5625 C 374.515625 291.5625 374.609375 291.554688 374.695312 291.542969 C 375.691406 291.414062 376.453125 290.5625 376.46875 289.558594 L 377.042969 254.941406 L 377.089844 252.105469 L 379.273438 253.917969 C 392.941406 265.261719 405.410156 278.078125 416.335938 292.011719 C 425.335938 303.496094 433.113281 313.414062 438.597656 322.367188 C 444.609375 332.175781 447.453125 340.25 447.546875 347.777344 L 447.566406 349.203125 L 446.136719 349.148438 C 428.921875 348.503906 411.601562 347.339844 394.65625 345.6875 C 333.25 339.703125 272.167969 327.074219 213.113281 308.148438 C 212.910156 308.082031 212.703125 308.050781 212.492188 308.050781 C 211.605469 308.050781 210.828125 308.617188 210.554688 309.46875 C 210.386719 309.984375 210.433594 310.535156 210.683594 311.019531 C 210.933594 311.507812 211.355469 311.863281 211.875 312.03125 C 271.214844 331.046875 332.578125 343.738281 394.265625 349.746094 C 411.160156 351.390625 428.410156 352.554688 445.535156 353.203125 Z M 445.535156 353.214844 " fill-opacity="1" fill-rule="nonzero"/><g clip-path="url(#9b7a08d928)"><path fill="#000000" d="M 509.167969 501.710938 L 478.828125 468.167969 C 477.570312 466.777344 475.421875 466.671875 474.03125 467.929688 C 472.640625 469.183594 472.53125 471.335938 473.792969 472.722656 L 500.515625 502.273438 L 307.058594 559.972656 L 119.449219 500.488281 L 142.886719 469.640625 C 144.019531 468.144531 143.734375 466.015625 142.238281 464.882812 C 140.742188 463.742188 138.613281 464.035156 137.480469 465.53125 L 111.125 500.214844 C 110.457031 501.09375 110.257812 502.242188 110.59375 503.296875 C 110.925781 504.347656 111.75 505.171875 112.804688 505.507812 L 306.003906 566.765625 C 306.335938 566.871094 306.679688 566.921875 307.027344 566.921875 C 307.375 566.921875 307.683594 566.875 308 566.785156 L 507.617188 507.242188 C 508.734375 506.910156 509.605469 506.027344 509.917969 504.902344 C 510.234375 503.78125 509.949219 502.574219 509.167969 501.710938 Z M 509.152344 442.15625 L 454.765625 382.617188 C 453.503906 381.230469 451.351562 381.132812 449.96875 382.398438 C 448.582031 383.660156 448.484375 385.8125 449.753906 387.195312 L 500.488281 442.738281 L 307.058594 500.433594 L 120.1875 441.183594 L 174.222656 387.308594 C 175.550781 385.984375 175.550781 383.835938 174.222656 382.507812 C 172.898438 381.179688 170.746094 381.175781 169.417969 382.5 L 111.429688 440.324219 C 110.585938 441.164062 110.246094 442.378906 110.523438 443.53125 C 110.808594 444.683594 111.667969 445.609375 112.800781 445.964844 L 306 507.226562 C 306.332031 507.332031 306.679688 507.382812 307.023438 507.382812 C 307.371094 507.382812 307.679688 507.335938 307.996094 507.242188 L 507.613281 447.699219 C 508.734375 447.367188 509.605469 446.480469 509.917969 445.351562 C 510.230469 444.226562 509.941406 443.019531 509.148438 442.15625 Z M 511.726562 347.804688 C 492.214844 348.542969 472.597656 348.621094 453.007812 348.035156 C 453.015625 330.015625 439.691406 313.011719 420.609375 288.675781 C 407.980469 272.5625 393.382812 257.964844 377.21875 245.289062 C 376.203125 244.492188 374.824219 244.339844 373.664062 244.894531 C 372.5 245.449219 371.746094 246.617188 371.726562 247.902344 L 371.328125 271.882812 C 370.371094 269.964844 369.359375 268.140625 368.296875 266.410156 C 362.746094 257.359375 355.773438 250.816406 347.566406 246.957031 C 331.523438 239.414062 315.496094 244.335938 298.53125 249.550781 C 297.046875 250.003906 295.550781 250.46875 294.035156 250.921875 C 293.578125 251.0625 247.503906 264.808594 182.109375 271.507812 C 151.097656 274.683594 118.519531 271.699219 85.289062 262.636719 C 83.90625 262.257812 82.4375 262.789062 81.613281 263.960938 C 80.792969 265.136719 80.792969 266.695312 81.617188 267.867188 C 116.957031 318.058594 157.765625 357.703125 199.628906 382.515625 C 202.78125 384.382812 205.925781 386.15625 209.066406 387.84375 C 209.140625 387.886719 209.214844 387.925781 209.292969 387.960938 C 237.835938 403.246094 265.90625 411.019531 292.1875 411.019531 C 302.699219 411.019531 312.933594 409.773438 322.785156 407.269531 C 329.71875 405.507812 336.53125 403.09375 343.191406 400.050781 L 325.761719 417.476562 C 324.742188 418.496094 324.476562 420.046875 325.101562 421.347656 C 325.667969 422.535156 326.867188 423.273438 328.164062 423.273438 C 328.285156 423.273438 328.40625 423.269531 328.53125 423.253906 C 349.027344 421.035156 368.875 415.835938 387.519531 407.808594 C 414.097656 396.355469 447.183594 382.109375 452.351562 354.917969 C 452.359375 354.886719 452.363281 354.847656 452.371094 354.816406 C 461.230469 355.078125 470.097656 355.214844 478.953125 355.214844 C 489.980469 355.214844 501 355.007812 511.980469 354.589844 C 513.855469 354.519531 515.320312 352.941406 515.25 351.070312 C 515.179688 349.195312 513.605469 347.734375 511.726562 347.804688 Z M 211.457031 313.332031 C 270.878906 332.378906 332.335938 345.089844 394.128906 351.109375 C 411.152344 352.765625 428.300781 353.921875 445.484375 354.574219 C 440.363281 377.648438 409.609375 390.894531 384.828125 401.570312 C 369.816406 408.035156 353.988281 412.605469 337.660156 415.1875 L 366.707031 386.148438 C 367.960938 384.894531 368.039062 382.886719 366.886719 381.539062 C 366.21875 380.757812 365.265625 380.351562 364.300781 380.351562 C 363.609375 380.351562 362.910156 380.5625 362.308594 380.996094 C 349.347656 390.40625 335.488281 397.027344 321.113281 400.6875 C 290.246094 408.539062 255.34375 403.269531 219.308594 385.480469 C 226.960938 382.550781 234.386719 379.027344 241.464844 374.957031 C 248.226562 371.070312 254.757812 366.636719 260.875 361.78125 C 262.34375 360.617188 262.589844 358.480469 261.421875 357.007812 C 260.257812 355.542969 258.121094 355.292969 256.648438 356.460938 C 250.796875 361.109375 244.550781 365.347656 238.078125 369.070312 C 229.535156 373.980469 220.464844 378.0625 211.089844 381.214844 C 208.429688 379.769531 205.761719 378.253906 203.09375 376.671875 C 164.167969 353.601562 126.105469 317.355469 92.605469 271.527344 C 123.496094 278.96875 153.796875 281.234375 182.804688 278.265625 C 230.128906 273.417969 267.480469 264.898438 285.046875 260.402344 C 294.476562 264.355469 302.957031 269.957031 310.253906 277.070312 C 316.925781 283.566406 322.386719 291.117188 326.496094 299.507812 C 327.082031 300.714844 328.292969 301.414062 329.550781 301.414062 C 330.046875 301.414062 330.558594 301.304688 331.035156 301.066406 C 332.722656 300.246094 333.421875 298.210938 332.597656 296.527344 C 328.148438 287.429688 322.230469 279.25 314.996094 272.207031 C 309.058594 266.417969 302.402344 261.558594 295.132812 257.679688 C 295.667969 257.523438 295.964844 257.4375 296 257.425781 C 297.523438 256.964844 299.035156 256.5 300.53125 256.042969 C 316.882812 251.015625 331.007812 246.679688 344.675781 253.105469 C 356.832031 258.820312 365.746094 271.390625 371.164062 290.464844 C 371.625 292.082031 373.199219 293.121094 374.871094 292.902344 C 376.542969 292.683594 377.800781 291.277344 377.828125 289.589844 L 378.402344 254.972656 C 392.011719 266.265625 404.386719 278.988281 415.265625 292.863281 C 433.363281 315.949219 445.992188 332.0625 446.1875 347.804688 C 428.988281 347.160156 411.824219 346.007812 394.789062 344.347656 C 333.476562 338.378906 272.492188 325.765625 213.53125 306.867188 C 211.746094 306.292969 209.832031 307.273438 209.261719 309.066406 C 208.6875 310.847656 209.671875 312.761719 211.457031 313.332031 Z M 211.457031 313.332031 " fill-opacity="1" fill-rule="nonzero"/></g><g fill="#000000" fill-opacity="1"><g transform="translate(528.067361, 385.700009)"><g><path d="M 29.109375 0.9375 C 24.554688 0.9375 20.503906 0.378906 16.953125 -0.734375 C 13.410156 -1.859375 10.453125 -3.332031 8.078125 -5.15625 C 5.710938 -6.988281 3.90625 -9 2.65625 -11.1875 L 9.796875 -19.90625 L 10.921875 -19.90625 C 12.890625 -16.96875 15.394531 -14.628906 18.4375 -12.890625 C 21.476562 -11.148438 25.035156 -10.28125 29.109375 -10.28125 C 32.585938 -10.28125 35.207031 -11.015625 36.96875 -12.484375 C 38.738281 -13.953125 39.625 -15.972656 39.625 -18.546875 C 39.625 -20.109375 39.335938 -21.410156 38.765625 -22.453125 C 38.203125 -23.503906 37.257812 -24.40625 35.9375 -25.15625 C 34.625 -25.90625 32.84375 -26.550781 30.59375 -27.09375 L 22.140625 -29.015625 C 16.242188 -30.367188 11.847656 -32.609375 8.953125 -35.734375 C 6.066406 -38.867188 4.625 -42.9375 4.625 -47.9375 C 4.625 -51.644531 5.550781 -54.90625 7.40625 -57.71875 C 9.269531 -60.539062 11.972656 -62.726562 15.515625 -64.28125 C 19.066406 -65.84375 23.3125 -66.625 28.25 -66.625 C 33.3125 -66.625 37.644531 -65.957031 41.25 -64.625 C 44.863281 -63.289062 47.914062 -61.242188 50.40625 -58.484375 L 43.984375 -49.6875 L 42.859375 -49.6875 C 41.003906 -51.632812 38.878906 -53.09375 36.484375 -54.0625 C 34.085938 -55.039062 31.34375 -55.53125 28.25 -55.53125 C 24.6875 -55.53125 21.976562 -54.898438 20.125 -53.640625 C 18.269531 -52.378906 17.34375 -50.640625 17.34375 -48.421875 C 17.34375 -46.359375 17.992188 -44.710938 19.296875 -43.484375 C 20.597656 -42.253906 22.851562 -41.296875 26.0625 -40.609375 L 34.6875 -38.8125 C 41.0625 -37.46875 45.6875 -35.1875 48.5625 -31.96875 C 51.4375 -28.75 52.875 -24.546875 52.875 -19.359375 C 52.875 -15.253906 51.988281 -11.679688 50.21875 -8.640625 C 48.457031 -5.609375 45.789062 -3.253906 42.21875 -1.578125 C 38.65625 0.0976562 34.285156 0.9375 29.109375 0.9375 Z M 29.109375 0.9375 "/></g></g></g><g fill="#000000" fill-opacity="1"><g transform="translate(584.484442, 385.700009)"><g><path d="M 22.6875 0.9375 C 17.113281 0.9375 13 -0.578125 10.34375 -3.609375 C 7.695312 -6.648438 6.375 -11.019531 6.375 -16.71875 L 6.375 -49.546875 L 18.828125 -49.546875 L 18.828125 -18.28125 C 18.828125 -15.257812 19.476562 -13.050781 20.78125 -11.65625 C 22.082031 -10.257812 24.09375 -9.5625 26.8125 -9.5625 C 30.257812 -9.5625 32.941406 -10.691406 34.859375 -12.953125 C 36.773438 -15.222656 37.734375 -18.78125 37.734375 -23.625 L 37.734375 -49.546875 L 50.171875 -49.546875 L 50.171875 0 L 38.234375 0 L 38.234375 -7.28125 L 37.28125 -7.5 C 35.695312 -4.65625 33.757812 -2.535156 31.46875 -1.140625 C 29.175781 0.242188 26.25 0.9375 22.6875 0.9375 Z M 22.6875 0.9375 "/></g></g></g><g fill="#000000" fill-opacity="1"><g transform="translate(641.799884, 385.700009)"><g><path d="M 7.140625 20.078125 L 7.140625 -49.546875 L 19.59375 -49.546875 L 19.59375 -43.078125 L 20.53125 -42.90625 C 22 -45.414062 23.957031 -47.304688 26.40625 -48.578125 C 28.863281 -49.859375 31.742188 -50.5 35.046875 -50.5 C 39.023438 -50.5 42.503906 -49.550781 45.484375 -47.65625 C 48.460938 -45.769531 50.78125 -42.898438 52.4375 -39.046875 C 54.101562 -35.203125 54.9375 -30.4375 54.9375 -24.75 C 54.9375 -19.09375 54.0625 -14.347656 52.3125 -10.515625 C 50.5625 -6.679688 48.128906 -3.8125 45.015625 -1.90625 C 41.898438 -0.0078125 38.304688 0.9375 34.234375 0.9375 C 31.148438 0.9375 28.484375 0.421875 26.234375 -0.609375 C 23.984375 -1.640625 22.082031 -3.25 20.53125 -5.4375 L 19.59375 -5.25 L 19.59375 20.078125 Z M 30.765625 -9.609375 C 34.484375 -9.609375 37.300781 -10.820312 39.21875 -13.25 C 41.132812 -15.675781 42.09375 -19.507812 42.09375 -24.75 C 42.09375 -29.988281 41.132812 -33.828125 39.21875 -36.265625 C 37.300781 -38.710938 34.484375 -39.9375 30.765625 -39.9375 C 27.296875 -39.9375 24.539062 -38.675781 22.5 -36.15625 C 20.46875 -33.644531 19.453125 -29.84375 19.453125 -24.75 C 19.453125 -19.6875 20.46875 -15.894531 22.5 -13.375 C 24.539062 -10.863281 27.296875 -9.609375 30.765625 -9.609375 Z M 30.765625 -9.609375 "/></g></g></g><g fill="#000000" fill-opacity="1"><g transform="translate(701.136638, 385.700009)"><g><path d="M 48.96875 -21.96875 L 17.109375 -21.96875 C 17.472656 -17.65625 18.703125 -14.515625 20.796875 -12.546875 C 22.890625 -10.585938 25.75 -9.609375 29.375 -9.609375 C 32.21875 -9.609375 34.523438 -10.140625 36.296875 -11.203125 C 38.066406 -12.265625 39.488281 -13.875 40.5625 -16.03125 L 41.515625 -16.03125 L 49.78125 -10.734375 C 48.15625 -7.265625 45.710938 -4.453125 42.453125 -2.296875 C 39.191406 -0.140625 34.832031 0.9375 29.375 0.9375 C 24.257812 0.9375 19.835938 -0.03125 16.109375 -1.96875 C 12.378906 -3.914062 9.503906 -6.8125 7.484375 -10.65625 C 5.460938 -14.507812 4.453125 -19.207031 4.453125 -24.75 C 4.453125 -30.382812 5.515625 -35.128906 7.640625 -38.984375 C 9.765625 -42.847656 12.640625 -45.734375 16.265625 -47.640625 C 19.890625 -49.546875 23.960938 -50.5 28.484375 -50.5 C 35.492188 -50.5 40.859375 -48.640625 44.578125 -44.921875 C 48.304688 -41.210938 50.171875 -35.765625 50.171875 -28.578125 C 50.171875 -25.960938 50.082031 -23.9375 49.90625 -22.5 Z M 38.28125 -30.015625 C 38.15625 -33.785156 37.273438 -36.53125 35.640625 -38.25 C 34.015625 -39.96875 31.628906 -40.828125 28.484375 -40.828125 C 22.191406 -40.828125 18.492188 -37.222656 17.390625 -30.015625 Z M 38.28125 -30.015625 "/></g></g></g><g fill="#000000" fill-opacity="1"><g transform="translate(754.99339, 385.700009)"><g><path d="M 7.140625 0 L 7.140625 -49.546875 L 19.234375 -49.546875 L 19.234375 -42.1875 L 20.171875 -42 C 21.367188 -44.757812 22.941406 -46.78125 24.890625 -48.0625 C 26.835938 -49.351562 29.203125 -50 31.984375 -50 C 34.796875 -50 36.9375 -49.519531 38.40625 -48.5625 L 36.296875 -37.828125 L 35.359375 -37.640625 C 34.546875 -37.972656 33.765625 -38.210938 33.015625 -38.359375 C 32.265625 -38.515625 31.351562 -38.59375 30.28125 -38.59375 C 26.800781 -38.59375 24.148438 -37.367188 22.328125 -34.921875 C 20.503906 -32.484375 19.59375 -28.570312 19.59375 -23.1875 L 19.59375 0 Z M 7.140625 0 "/></g></g></g><g fill="#000000" fill-opacity="1"><g transform="translate(793.847499, 385.700009)"><g/></g></g><g fill="#000000" fill-opacity="1"><g transform="translate(815.542932, 385.700009)"><g><path d="M 21.515625 -65.671875 L 21.515625 -10.875 L 51.03125 -10.875 L 51.03125 0 L 8.53125 0 L 8.53125 -65.671875 Z M 21.515625 -65.671875 "/></g></g></g><g fill="#000000" fill-opacity="1"><g transform="translate(868.725914, 385.700009)"><g><path d="M 13.34375 -55.484375 C 11.09375 -55.484375 9.265625 -56.160156 7.859375 -57.515625 C 6.453125 -58.878906 5.75 -60.640625 5.75 -62.796875 C 5.75 -64.921875 6.453125 -66.664062 7.859375 -68.03125 C 9.265625 -69.394531 11.09375 -70.078125 13.34375 -70.078125 C 14.84375 -70.078125 16.175781 -69.757812 17.34375 -69.125 C 18.507812 -68.5 19.414062 -67.640625 20.0625 -66.546875 C 20.707031 -65.453125 21.03125 -64.203125 21.03125 -62.796875 C 21.03125 -61.390625 20.707031 -60.128906 20.0625 -59.015625 C 19.414062 -57.910156 18.507812 -57.046875 17.34375 -56.421875 C 16.175781 -55.796875 14.84375 -55.484375 13.34375 -55.484375 Z M 7.140625 0 L 7.140625 -49.546875 L 19.59375 -49.546875 L 19.59375 0 Z M 7.140625 0 "/></g></g></g><g fill="#000000" fill-opacity="1"><g transform="translate(895.40724, 385.700009)"><g><path d="M 25.703125 21.03125 C 17.523438 21.03125 11.488281 19.832031 7.59375 17.4375 C 3.695312 15.039062 1.75 11.695312 1.75 7.40625 C 1.75 4.800781 2.578125 2.664062 4.234375 1 C 5.898438 -0.65625 8.289062 -1.769531 11.40625 -2.34375 L 11.40625 -3.28125 C 9.726562 -4.300781 8.519531 -5.429688 7.78125 -6.671875 C 7.050781 -7.910156 6.6875 -9.351562 6.6875 -11 C 6.6875 -14.988281 9.28125 -17.671875 14.46875 -19.046875 L 14.46875 -19.984375 C 11.800781 -21.515625 9.789062 -23.410156 8.4375 -25.671875 C 7.09375 -27.929688 6.421875 -30.664062 6.421875 -33.875 C 6.421875 -37.164062 7.175781 -40.0625 8.6875 -42.5625 C 10.207031 -45.0625 12.425781 -47.007812 15.34375 -48.40625 C 18.257812 -49.800781 21.753906 -50.5 25.828125 -50.5 C 29.960938 -50.5 33.257812 -49.78125 35.71875 -48.34375 C 37.238281 -50.550781 38.117188 -53.109375 38.359375 -56.015625 L 39.3125 -56.609375 L 48.25 -54.40625 C 47.976562 -52.039062 47.285156 -50.054688 46.171875 -48.453125 C 45.066406 -46.847656 43.347656 -45.414062 41.015625 -44.15625 L 41.015625 -43.171875 C 43.796875 -40.710938 45.1875 -37.285156 45.1875 -32.890625 C 45.1875 -29.828125 44.421875 -27.082031 42.890625 -24.65625 C 41.367188 -22.238281 39.144531 -20.320312 36.21875 -18.90625 C 33.300781 -17.5 29.835938 -16.796875 25.828125 -16.796875 L 23.9375 -16.84375 C 22.738281 -16.90625 21.898438 -16.9375 21.421875 -16.9375 C 20.285156 -16.9375 19.394531 -16.628906 18.75 -16.015625 C 18.113281 -15.398438 17.796875 -14.613281 17.796875 -13.65625 C 17.796875 -12.601562 18.210938 -11.785156 19.046875 -11.203125 C 19.890625 -10.617188 21.117188 -10.300781 22.734375 -10.25 L 33.828125 -9.84375 C 44.785156 -9.507812 50.265625 -4.789062 50.265625 4.3125 C 50.265625 7.519531 49.445312 10.375 47.8125 12.875 C 46.1875 15.375 43.546875 17.359375 39.890625 18.828125 C 36.234375 20.296875 31.503906 21.03125 25.703125 21.03125 Z M 25.828125 -25.515625 C 28.222656 -25.515625 30.09375 -26.21875 31.4375 -27.625 C 32.789062 -29.03125 33.46875 -31.035156 33.46875 -33.640625 C 33.46875 -36.253906 32.789062 -38.253906 31.4375 -39.640625 C 30.09375 -41.035156 28.222656 -41.734375 25.828125 -41.734375 C 23.398438 -41.734375 21.523438 -41.035156 20.203125 -39.640625 C 18.890625 -38.253906 18.234375 -36.253906 18.234375 -33.640625 C 18.234375 -31.003906 18.890625 -28.988281 20.203125 -27.59375 C 21.523438 -26.207031 23.398438 -25.515625 25.828125 -25.515625 Z M 25.703125 12 C 29.953125 12 33.039062 11.398438 34.96875 10.203125 C 36.90625 9.003906 37.875 7.445312 37.875 5.53125 C 37.875 3.96875 37.378906 2.816406 36.390625 2.078125 C 35.398438 1.347656 33.828125 0.957031 31.671875 0.90625 L 21.875 0.453125 C 21.550781 0.453125 21.242188 0.4375 20.953125 0.40625 C 20.671875 0.375 20.394531 0.359375 20.125 0.359375 C 18.03125 0.359375 16.4375 0.804688 15.34375 1.703125 C 14.25 2.609375 13.703125 3.851562 13.703125 5.4375 C 13.703125 7.53125 14.703125 9.144531 16.703125 10.28125 C 18.710938 11.425781 21.710938 12 25.703125 12 Z M 25.703125 12 "/></g></g></g><g fill="#000000" fill-opacity="1"><g transform="translate(946.928242, 385.700009)"><g><path d="M 7.140625 0 L 7.140625 -69.453125 L 19.59375 -69.453125 L 19.59375 -43.078125 L 20.53125 -42.90625 C 22.175781 -45.332031 24.195312 -47.203125 26.59375 -48.515625 C 28.988281 -49.835938 31.878906 -50.5 35.265625 -50.5 C 46.191406 -50.5 51.65625 -44.296875 51.65625 -31.890625 L 51.65625 0 L 39.21875 0 L 39.21875 -30.328125 C 39.21875 -33.710938 38.539062 -36.164062 37.1875 -37.6875 C 35.84375 -39.21875 33.75 -39.984375 30.90625 -39.984375 C 27.4375 -39.984375 24.679688 -38.820312 22.640625 -36.5 C 20.609375 -34.175781 19.59375 -30.5625 19.59375 -25.65625 L 19.59375 0 Z M 7.140625 0 "/></g></g></g><g fill="#000000" fill-opacity="1"><g transform="translate(1004.603028, 385.700009)"><g><path d="M 34.1875 -11.8125 L 37.421875 -2.609375 C 36.078125 -1.492188 34.382812 -0.625 32.34375 0 C 30.3125 0.625 28.003906 0.9375 25.421875 0.9375 C 20.066406 0.9375 15.992188 -0.519531 13.203125 -3.4375 C 10.421875 -6.351562 9.03125 -10.597656 9.03125 -16.171875 L 9.03125 -39.71875 L 1.484375 -39.71875 L 1.484375 -49.59375 L 9.03125 -49.59375 L 9.03125 -59.25 L 21.46875 -61.28125 L 21.46875 -49.59375 L 35.53125 -49.59375 L 35.53125 -39.71875 L 21.46875 -39.71875 L 21.46875 -17.078125 C 21.46875 -14.617188 21.976562 -12.828125 23 -11.703125 C 24.019531 -10.578125 25.503906 -10.015625 27.453125 -10.015625 C 29.660156 -10.015625 31.59375 -10.613281 33.25 -11.8125 Z M 34.1875 -11.8125 "/></g></g></g><g fill="#000000" fill-opacity="1"><g transform="translate(1043.097792, 385.700009)"><g/></g></g><g fill="#000000" fill-opacity="1"><g transform="translate(1064.793226, 385.700009)"><g><path d="M 31.359375 0 L 16.84375 0 L 1.796875 -65.671875 L 14.734375 -65.671875 L 24.65625 -19.5 L 25.78125 -19.5 L 37.5625 -65.671875 L 48.65625 -65.671875 L 60.640625 -19.5 L 61.765625 -19.5 L 71.734375 -65.671875 L 84.234375 -65.671875 L 69.21875 0 L 54.671875 0 L 43.171875 -42.359375 L 42.234375 -42.359375 Z M 31.359375 0 "/></g></g></g><g fill="#000000" fill-opacity="1"><g transform="translate(1149.284036, 385.700009)"><g><path d="M 48.96875 -21.96875 L 17.109375 -21.96875 C 17.472656 -17.65625 18.703125 -14.515625 20.796875 -12.546875 C 22.890625 -10.585938 25.75 -9.609375 29.375 -9.609375 C 32.21875 -9.609375 34.523438 -10.140625 36.296875 -11.203125 C 38.066406 -12.265625 39.488281 -13.875 40.5625 -16.03125 L 41.515625 -16.03125 L 49.78125 -10.734375 C 48.15625 -7.265625 45.710938 -4.453125 42.453125 -2.296875 C 39.191406 -0.140625 34.832031 0.9375 29.375 0.9375 C 24.257812 0.9375 19.835938 -0.03125 16.109375 -1.96875 C 12.378906 -3.914062 9.503906 -6.8125 7.484375 -10.65625 C 5.460938 -14.507812 4.453125 -19.207031 4.453125 -24.75 C 4.453125 -30.382812 5.515625 -35.128906 7.640625 -38.984375 C 9.765625 -42.847656 12.640625 -45.734375 16.265625 -47.640625 C 19.890625 -49.546875 23.960938 -50.5 28.484375 -50.5 C 35.492188 -50.5 40.859375 -48.640625 44.578125 -44.921875 C 48.304688 -41.210938 50.171875 -35.765625 50.171875 -28.578125 C 50.171875 -25.960938 50.082031 -23.9375 49.90625 -22.5 Z M 38.28125 -30.015625 C 38.15625 -33.785156 37.273438 -36.53125 35.640625 -38.25 C 34.015625 -39.96875 31.628906 -40.828125 28.484375 -40.828125 C 22.191406 -40.828125 18.492188 -37.222656 17.390625 -30.015625 Z M 38.28125 -30.015625 "/></g></g></g><g fill="#000000" fill-opacity="1"><g transform="translate(1203.140799, 385.700009)"><g><path d="M 13.34375 -55.484375 C 11.09375 -55.484375 9.265625 -56.160156 7.859375 -57.515625 C 6.453125 -58.878906 5.75 -60.640625 5.75 -62.796875 C 5.75 -64.921875 6.453125 -66.664062 7.859375 -68.03125 C 9.265625 -69.394531 11.09375 -70.078125 13.34375 -70.078125 C 14.84375 -70.078125 16.175781 -69.757812 17.34375 -69.125 C 18.507812 -68.5 19.414062 -67.640625 20.0625 -66.546875 C 20.707031 -65.453125 21.03125 -64.203125 21.03125 -62.796875 C 21.03125 -61.390625 20.707031 -60.128906 20.0625 -59.015625 C 19.414062 -57.910156 18.507812 -57.046875 17.34375 -56.421875 C 16.175781 -55.796875 14.84375 -55.484375 13.34375 -55.484375 Z M 7.140625 0 L 7.140625 -49.546875 L 19.59375 -49.546875 L 19.59375 0 Z M 7.140625 0 "/></g></g></g><g fill="#000000" fill-opacity="1"><g transform="translate(1229.822148, 385.700009)"><g><path d="M 25.703125 21.03125 C 17.523438 21.03125 11.488281 19.832031 7.59375 17.4375 C 3.695312 15.039062 1.75 11.695312 1.75 7.40625 C 1.75 4.800781 2.578125 2.664062 4.234375 1 C 5.898438 -0.65625 8.289062 -1.769531 11.40625 -2.34375 L 11.40625 -3.28125 C 9.726562 -4.300781 8.519531 -5.429688 7.78125 -6.671875 C 7.050781 -7.910156 6.6875 -9.351562 6.6875 -11 C 6.6875 -14.988281 9.28125 -17.671875 14.46875 -19.046875 L 14.46875 -19.984375 C 11.800781 -21.515625 9.789062 -23.410156 8.4375 -25.671875 C 7.09375 -27.929688 6.421875 -30.664062 6.421875 -33.875 C 6.421875 -37.164062 7.175781 -40.0625 8.6875 -42.5625 C 10.207031 -45.0625 12.425781 -47.007812 15.34375 -48.40625 C 18.257812 -49.800781 21.753906 -50.5 25.828125 -50.5 C 29.960938 -50.5 33.257812 -49.78125 35.71875 -48.34375 C 37.238281 -50.550781 38.117188 -53.109375 38.359375 -56.015625 L 39.3125 -56.609375 L 48.25 -54.40625 C 47.976562 -52.039062 47.285156 -50.054688 46.171875 -48.453125 C 45.066406 -46.847656 43.347656 -45.414062 41.015625 -44.15625 L 41.015625 -43.171875 C 43.796875 -40.710938 45.1875 -37.285156 45.1875 -32.890625 C 45.1875 -29.828125 44.421875 -27.082031 42.890625 -24.65625 C 41.367188 -22.238281 39.144531 -20.320312 36.21875 -18.90625 C 33.300781 -17.5 29.835938 -16.796875 25.828125 -16.796875 L 23.9375 -16.84375 C 22.738281 -16.90625 21.898438 -16.9375 21.421875 -16.9375 C 20.285156 -16.9375 19.394531 -16.628906 18.75 -16.015625 C 18.113281 -15.398438 17.796875 -14.613281 17.796875 -13.65625 C 17.796875 -12.601562 18.210938 -11.785156 19.046875 -11.203125 C 19.890625 -10.617188 21.117188 -10.300781 22.734375 -10.25 L 33.828125 -9.84375 C 44.785156 -9.507812 50.265625 -4.789062 50.265625 4.3125 C 50.265625 7.519531 49.445312 10.375 47.8125 12.875 C 46.1875 15.375 43.546875 17.359375 39.890625 18.828125 C 36.234375 20.296875 31.503906 21.03125 25.703125 21.03125 Z M 25.828125 -25.515625 C 28.222656 -25.515625 30.09375 -26.21875 31.4375 -27.625 C 32.789062 -29.03125 33.46875 -31.035156 33.46875 -33.640625 C 33.46875 -36.253906 32.789062 -38.253906 31.4375 -39.640625 C 30.09375 -41.035156 28.222656 -41.734375 25.828125 -41.734375 C 23.398438 -41.734375 21.523438 -41.035156 20.203125 -39.640625 C 18.890625 -38.253906 18.234375 -36.253906 18.234375 -33.640625 C 18.234375 -31.003906 18.890625 -28.988281 20.203125 -27.59375 C 21.523438 -26.207031 23.398438 -25.515625 25.828125 -25.515625 Z M 25.703125 12 C 29.953125 12 33.039062 11.398438 34.96875 10.203125 C 36.90625 9.003906 37.875 7.445312 37.875 5.53125 C 37.875 3.96875 37.378906 2.816406 36.390625 2.078125 C 35.398438 1.347656 33.828125 0.957031 31.671875 0.90625 L 21.875 0.453125 C 21.550781 0.453125 21.242188 0.4375 20.953125 0.40625 C 20.671875 0.375 20.394531 0.359375 20.125 0.359375 C 18.03125 0.359375 16.4375 0.804688 15.34375 1.703125 C 14.25 2.609375 13.703125 3.851562 13.703125 5.4375 C 13.703125 7.53125 14.703125 9.144531 16.703125 10.28125 C 18.710938 11.425781 21.710938 12 25.703125 12 Z M 25.703125 12 "/></g></g></g><g fill="#000000" fill-opacity="1"><g transform="translate(1281.343126, 385.700009)"><g><path d="M 7.140625 0 L 7.140625 -69.453125 L 19.59375 -69.453125 L 19.59375 -43.078125 L 20.53125 -42.90625 C 22.175781 -45.332031 24.195312 -47.203125 26.59375 -48.515625 C 28.988281 -49.835938 31.878906 -50.5 35.265625 -50.5 C 46.191406 -50.5 51.65625 -44.296875 51.65625 -31.890625 L 51.65625 0 L 39.21875 0 L 39.21875 -30.328125 C 39.21875 -33.710938 38.539062 -36.164062 37.1875 -37.6875 C 35.84375 -39.21875 33.75 -39.984375 30.90625 -39.984375 C 27.4375 -39.984375 24.679688 -38.820312 22.640625 -36.5 C 20.609375 -34.175781 19.59375 -30.5625 19.59375 -25.65625 L 19.59375 0 Z M 7.140625 0 "/></g></g></g><g fill="#000000" fill-opacity="1"><g transform="translate(1339.017912, 385.700009)"><g><path d="M 34.1875 -11.8125 L 37.421875 -2.609375 C 36.078125 -1.492188 34.382812 -0.625 32.34375 0 C 30.3125 0.625 28.003906 0.9375 25.421875 0.9375 C 20.066406 0.9375 15.992188 -0.519531 13.203125 -3.4375 C 10.421875 -6.351562 9.03125 -10.597656 9.03125 -16.171875 L 9.03125 -39.71875 L 1.484375 -39.71875 L 1.484375 -49.59375 L 9.03125 -49.59375 L 9.03125 -59.25 L 21.46875 -61.28125 L 21.46875 -49.59375 L 35.53125 -49.59375 L 35.53125 -39.71875 L 21.46875 -39.71875 L 21.46875 -17.078125 C 21.46875 -14.617188 21.976562 -12.828125 23 -11.703125 C 24.019531 -10.578125 25.503906 -10.015625 27.453125 -10.015625 C 29.660156 -10.015625 31.59375 -10.613281 33.25 -11.8125 Z M 34.1875 -11.8125 "/></g></g></g><g transform="matrix(1, 0, 0, 1, 810, 406)"><g clip-path="url(#bebccf4ba1)"><g fill="#000000" fill-opacity="1"><g transform="translate(0.372153, 87.102817)"><g><path d="M 3.46875 -22.078125 C 3.65625 -26.867188 4.644531 -30.40625 6.4375 -32.6875 C 8.238281 -34.976562 10.832031 -36.125 14.21875 -36.125 C 15.945312 -36.125 17.5 -35.84375 18.875 -35.28125 C 20.257812 -34.726562 21.789062 -33.960938 23.46875 -32.984375 C 24.488281 -32.367188 25.300781 -31.921875 25.90625 -31.640625 C 26.519531 -31.359375 27.109375 -31.21875 27.671875 -31.21875 C 28.597656 -31.21875 29.300781 -31.609375 29.78125 -32.390625 C 30.257812 -33.179688 30.550781 -34.484375 30.65625 -36.296875 L 39.53125 -36.296875 C 39.34375 -31.523438 38.351562 -27.988281 36.5625 -25.6875 C 34.78125 -23.382812 32.1875 -22.234375 28.78125 -22.234375 C 27.050781 -22.234375 25.507812 -22.503906 24.15625 -23.046875 C 22.800781 -23.597656 21.285156 -24.378906 19.609375 -25.390625 C 18.484375 -26.023438 17.628906 -26.484375 17.046875 -26.765625 C 16.460938 -27.046875 15.890625 -27.1875 15.328125 -27.1875 C 14.421875 -27.1875 13.726562 -26.785156 13.25 -25.984375 C 12.769531 -25.191406 12.476562 -23.890625 12.375 -22.078125 Z M 3.46875 -22.078125 "/></g></g></g><g fill="#000000" fill-opacity="1"><g transform="translate(43.368257, 87.102817)"><g><path d="M 25.03125 0.84375 C 20.394531 0.84375 16.472656 0.125 13.265625 -1.3125 C 10.066406 -2.75 7.65625 -4.796875 6.03125 -7.453125 C 4.40625 -10.117188 3.59375 -13.273438 3.59375 -16.921875 C 3.59375 -20.304688 4.429688 -23.234375 6.109375 -25.703125 C 7.785156 -28.179688 10.234375 -30.128906 13.453125 -31.546875 L 13.453125 -32.375 C 11.160156 -33.789062 9.410156 -35.46875 8.203125 -37.40625 C 6.992188 -39.351562 6.390625 -41.628906 6.390625 -44.234375 C 6.390625 -47.191406 7.113281 -49.800781 8.5625 -52.0625 C 10.007812 -54.320312 12.132812 -56.078125 14.9375 -57.328125 C 17.75 -58.578125 21.113281 -59.203125 25.03125 -59.203125 C 28.945312 -59.203125 32.300781 -58.578125 35.09375 -57.328125 C 37.882812 -56.078125 40.007812 -54.320312 41.46875 -52.0625 C 42.9375 -49.800781 43.671875 -47.191406 43.671875 -44.234375 C 43.671875 -41.628906 43.054688 -39.359375 41.828125 -37.421875 C 40.609375 -35.492188 38.84375 -33.8125 36.53125 -32.375 L 36.53125 -31.546875 C 39.9375 -30.179688 42.4375 -28.25 44.03125 -25.75 C 45.632812 -23.25 46.4375 -20.304688 46.4375 -16.921875 C 46.4375 -13.273438 45.625 -10.117188 44 -7.453125 C 42.375 -4.796875 39.960938 -2.75 36.765625 -1.3125 C 33.578125 0.125 29.664062 0.84375 25.03125 0.84375 Z M 25.03125 -35.65625 C 27.34375 -35.65625 29.1875 -36.289062 30.5625 -37.5625 C 31.9375 -38.84375 32.625 -40.613281 32.625 -42.875 C 32.625 -45.164062 31.9375 -46.960938 30.5625 -48.265625 C 29.1875 -49.566406 27.34375 -50.21875 25.03125 -50.21875 C 22.664062 -50.21875 20.800781 -49.570312 19.4375 -48.28125 C 18.082031 -47 17.40625 -45.195312 17.40625 -42.875 C 17.40625 -40.59375 18.082031 -38.816406 19.4375 -37.546875 C 20.800781 -36.285156 22.664062 -35.65625 25.03125 -35.65625 Z M 25.03125 -8.984375 C 28.144531 -8.984375 30.550781 -9.757812 32.25 -11.3125 C 33.957031 -12.875 34.8125 -15.039062 34.8125 -17.8125 C 34.8125 -20.570312 33.957031 -22.726562 32.25 -24.28125 C 30.550781 -25.84375 28.144531 -26.625 25.03125 -26.625 C 21.894531 -26.625 19.472656 -25.84375 17.765625 -24.28125 C 16.066406 -22.726562 15.21875 -20.570312 15.21875 -17.8125 C 15.21875 -15.039062 16.066406 -12.875 17.765625 -11.3125 C 19.472656 -9.757812 21.894531 -8.984375 25.03125 -8.984375 Z M 25.03125 -8.984375 "/></g></g></g><g fill="#000000" fill-opacity="1"><g transform="translate(93.430564, 87.102817)"><g><path d="M 28.5 0.84375 C 23.738281 0.84375 19.59375 -0.210938 16.0625 -2.328125 C 12.539062 -4.453125 9.800781 -7.75 7.84375 -12.21875 C 5.882812 -16.6875 4.90625 -22.34375 4.90625 -29.1875 C 4.90625 -36.03125 5.882812 -41.6875 7.84375 -46.15625 C 9.800781 -50.625 12.539062 -53.914062 16.0625 -56.03125 C 19.59375 -58.144531 23.738281 -59.203125 28.5 -59.203125 C 33.289062 -59.203125 37.445312 -58.144531 40.96875 -56.03125 C 44.5 -53.914062 47.242188 -50.625 49.203125 -46.15625 C 51.160156 -41.6875 52.140625 -36.03125 52.140625 -29.1875 C 52.140625 -22.34375 51.160156 -16.6875 49.203125 -12.21875 C 47.242188 -7.75 44.5 -4.453125 40.96875 -2.328125 C 37.445312 -0.210938 33.289062 0.84375 28.5 0.84375 Z M 28.5 -8.9375 C 31.113281 -8.9375 33.296875 -9.566406 35.046875 -10.828125 C 36.804688 -12.097656 38.160156 -14.222656 39.109375 -17.203125 C 40.054688 -20.179688 40.53125 -24.175781 40.53125 -29.1875 C 40.53125 -34.1875 40.054688 -38.175781 39.109375 -41.15625 C 38.160156 -44.144531 36.804688 -46.269531 35.046875 -47.53125 C 33.296875 -48.789062 31.113281 -49.421875 28.5 -49.421875 C 25.894531 -49.421875 23.710938 -48.789062 21.953125 -47.53125 C 20.203125 -46.269531 18.851562 -44.144531 17.90625 -41.15625 C 16.957031 -38.175781 16.484375 -34.1875 16.484375 -29.1875 C 16.484375 -24.175781 16.957031 -20.179688 17.90625 -17.203125 C 18.851562 -14.222656 20.203125 -12.097656 21.953125 -10.828125 C 23.710938 -9.566406 25.894531 -8.9375 28.5 -8.9375 Z M 28.5 -8.9375 "/></g></g></g><g fill="#000000" fill-opacity="1"><g transform="translate(150.479246, 87.102817)"><g><path d="M 7.578125 0 L 7.578125 -58.375 L 19.125 -58.375 L 19.125 -34.53125 L 20.40625 -34.53125 L 39.890625 -58.375 L 51.703125 -58.375 L 51.703125 -57.375 L 30.21875 -30.828125 L 53.9375 -1 L 53.9375 0 L 40.890625 0 L 20.40625 -25.1875 L 19.125 -25.1875 L 19.125 0 Z M 7.578125 0 "/></g></g></g><g fill="#000000" fill-opacity="1"><g transform="translate(204.414004, 87.102817)"><g><path d="M 11.859375 -49.3125 C 9.859375 -49.3125 8.234375 -49.914062 6.984375 -51.125 C 5.734375 -52.332031 5.109375 -53.894531 5.109375 -55.8125 C 5.109375 -57.707031 5.734375 -59.257812 6.984375 -60.46875 C 8.234375 -61.675781 9.859375 -62.28125 11.859375 -62.28125 C 13.191406 -62.28125 14.375 -62 15.40625 -61.4375 C 16.445312 -60.882812 17.253906 -60.117188 17.828125 -59.140625 C 18.398438 -58.171875 18.6875 -57.0625 18.6875 -55.8125 C 18.6875 -54.5625 18.398438 -53.441406 17.828125 -52.453125 C 17.253906 -51.472656 16.445312 -50.703125 15.40625 -50.140625 C 14.375 -49.585938 13.191406 -49.3125 11.859375 -49.3125 Z M 6.34375 0 L 6.34375 -44.03125 L 17.40625 -44.03125 L 17.40625 0 Z M 6.34375 0 "/></g></g></g><g fill="#000000" fill-opacity="1"><g transform="translate(228.127727, 87.102817)"><g><path d="M 7.578125 0 L 7.578125 -58.375 L 32.5 -58.375 C 36.09375 -58.375 39.132812 -57.804688 41.625 -56.671875 C 44.113281 -55.535156 45.992188 -53.921875 47.265625 -51.828125 C 48.546875 -49.742188 49.1875 -47.28125 49.1875 -44.4375 C 49.1875 -41.851562 48.5625 -39.578125 47.3125 -37.609375 C 46.0625 -35.640625 44.265625 -34.054688 41.921875 -32.859375 L 41.921875 -32.015625 C 45.597656 -31.054688 48.429688 -29.3125 50.421875 -26.78125 C 52.421875 -24.257812 53.421875 -21.160156 53.421875 -17.484375 C 53.421875 -11.898438 51.734375 -7.585938 48.359375 -4.546875 C 44.992188 -1.515625 40 0 33.375 0 Z M 30.109375 -35.09375 C 35.484375 -35.09375 38.171875 -37.515625 38.171875 -42.359375 C 38.171875 -44.835938 37.503906 -46.679688 36.171875 -47.890625 C 34.835938 -49.097656 32.816406 -49.703125 30.109375 -49.703125 L 19.125 -49.703125 L 19.125 -35.09375 Z M 32.21875 -9.140625 C 38.582031 -9.140625 41.765625 -12.03125 41.765625 -17.8125 C 41.765625 -23.613281 38.582031 -26.515625 32.21875 -26.515625 L 19.125 -26.515625 L 19.125 -9.140625 Z M 32.21875 -9.140625 "/></g></g></g></g></g></svg>