<svg xmlns="http://www.w3.org/2000/svg" xmlns:xlink="http://www.w3.org/1999/xlink" width="500" zoomAndPan="magnify" viewBox="0 0 375 374.999991" height="500" preserveAspectRatio="xMidYMid meet" version="1.0"><defs><clipPath id="982cdf3922"><path d="M 84.78125 85.285156 L 111.78125 85.285156 L 111.78125 112.285156 L 84.78125 112.285156 Z M 84.78125 85.285156 " clip-rule="nonzero"/></clipPath></defs><path fill="#000000" d="M 214.183594 171.929688 L 343.710938 118.257812 C 335.300781 99.265625 323.355469 81.816406 308.222656 66.730469 C 293.078125 51.621094 275.617188 39.6875 256.671875 31.277344 L 203.015625 160.746094 C 207.625 163.445312 211.484375 167.304688 214.183594 171.929688 Z M 214.183594 171.929688 " fill-opacity="1" fill-rule="evenodd"/><path fill="#000000" d="M 358.230469 187.417969 C 358.230469 166.007812 354.324219 145.195312 346.839844 125.824219 L 308.664062 141.640625 C 314.234375 156.261719 317.0625 171.648438 317.0625 187.417969 C 317.0625 215.65625 308.164062 242.363281 291.292969 264.863281 C 293.726562 268.109375 295.046875 272.015625 295.046875 276.128906 C 295.046875 281.144531 293.089844 285.859375 289.523438 289.441406 C 285.953125 293.007812 281.226562 294.96875 276.21875 294.96875 C 272.117188 294.96875 268.203125 293.644531 264.957031 291.214844 C 242.457031 308.082031 215.75 316.980469 187.511719 316.980469 C 116.078125 316.980469 57.960938 258.863281 57.960938 187.429688 C 57.960938 159.183594 66.859375 132.476562 83.730469 109.972656 C 81.378906 106.832031 79.988281 102.941406 79.988281 98.722656 C 79.988281 88.351562 88.421875 79.90625 98.804688 79.90625 C 103.019531 79.90625 106.914062 81.296875 110.054688 83.648438 C 132.554688 66.777344 159.261719 57.867188 187.511719 57.867188 C 203.28125 57.867188 218.65625 60.695312 233.292969 66.269531 L 249.09375 28.136719 C 229.699219 20.628906 208.902344 16.699219 187.523438 16.699219 C 93.394531 16.699219 16.804688 93.289062 16.804688 187.417969 C 16.804688 226.445312 30.246094 264.34375 54.738281 294.574219 C 57.519531 293.007812 60.660156 292.175781 63.929688 292.175781 C 68.945312 292.175781 73.671875 294.132812 77.230469 297.714844 C 80.796875 301.28125 82.757812 305.996094 82.757812 311.015625 C 82.757812 314.28125 81.921875 317.421875 80.359375 320.203125 C 110.585938 344.699219 148.488281 358.148438 187.511719 358.148438 C 281.640625 358.136719 358.230469 281.550781 358.230469 187.417969 Z M 358.230469 187.417969 " fill-opacity="1" fill-rule="evenodd"/><path fill="#000000" d="M 285.070312 259.511719 C 300.65625 238.527344 308.871094 213.6875 308.871094 187.417969 C 308.871094 172.726562 306.253906 158.40625 301.085938 144.78125 L 263.09375 160.527344 C 266.152344 169.078125 267.703125 178.101562 267.703125 187.417969 C 267.703125 231.632812 231.726562 267.609375 187.5 267.609375 C 143.273438 267.609375 107.296875 231.632812 107.296875 187.417969 C 107.296875 143.191406 143.273438 107.214844 187.5 107.214844 C 196.816406 107.214844 205.84375 108.769531 214.394531 111.828125 L 230.140625 73.835938 C 216.511719 68.667969 202.191406 66.046875 187.5 66.046875 C 161.222656 66.046875 136.378906 74.273438 115.394531 89.859375 C 116.808594 92.5 117.609375 95.511719 117.609375 98.699219 C 117.609375 109.082031 109.175781 117.515625 98.792969 117.515625 C 95.59375 117.515625 92.582031 116.71875 89.953125 115.304688 C 74.355469 136.285156 66.140625 161.140625 66.140625 187.40625 C 66.152344 254.34375 120.585938 308.777344 187.511719 308.777344 C 213.777344 308.777344 238.632812 300.5625 259.617188 284.96875 C 255.828125 277.855469 256.929688 268.804688 262.917969 262.8125 C 266.488281 259.246094 271.203125 257.277344 276.21875 257.277344 C 279.359375 257.289062 282.382812 258.0625 285.070312 259.511719 Z M 285.070312 259.511719 " fill-opacity="1" fill-rule="evenodd"/><path fill="#000000" d="M 187.511719 259.429688 C 227.21875 259.429688 259.523438 227.128906 259.523438 187.429688 C 259.523438 179.203125 258.179688 171.234375 255.527344 163.679688 L 217.335938 179.503906 C 218.007812 182.03125 218.367188 184.695312 218.367188 187.429688 C 218.367188 204.441406 204.53125 218.273438 187.523438 218.273438 C 170.515625 218.273438 156.679688 204.441406 156.679688 187.429688 C 156.679688 170.421875 170.515625 156.585938 187.523438 156.585938 C 190.257812 156.585938 192.910156 156.945312 195.449219 157.617188 L 211.277344 119.429688 C 203.722656 116.773438 195.75 115.429688 187.523438 115.429688 C 147.816406 115.429688 115.511719 147.734375 115.511719 187.441406 C 115.5 227.128906 147.804688 259.429688 187.511719 259.429688 Z M 187.511719 259.429688 " fill-opacity="1" fill-rule="evenodd"/><path fill="#000000" d="M 187.511719 210.070312 C 200.003906 210.070312 210.164062 199.910156 210.164062 187.417969 C 210.164062 174.917969 200.003906 164.765625 187.511719 164.765625 C 175.019531 164.765625 164.859375 174.929688 164.859375 187.417969 C 164.859375 199.910156 175.019531 210.070312 187.511719 210.070312 Z M 187.511719 210.070312 " fill-opacity="1" fill-rule="evenodd"/><path fill="#000000" d="M 98.804688 109.335938 C 104.65625 109.335938 109.429688 104.574219 109.429688 98.710938 C 109.429688 92.859375 104.667969 88.085938 98.804688 88.085938 C 92.953125 88.085938 88.179688 92.847656 88.179688 98.710938 C 88.179688 104.5625 92.953125 109.335938 98.804688 109.335938 Z M 98.804688 109.335938 " fill-opacity="1" fill-rule="evenodd"/><path fill="#000000" d="M 71.4375 318.523438 C 75.574219 314.386719 75.574219 307.644531 71.4375 303.507812 C 67.300781 299.371094 60.554688 299.371094 56.417969 303.507812 C 52.28125 307.644531 52.28125 314.386719 56.417969 318.523438 C 58.402344 320.539062 61.042969 321.640625 63.859375 321.652344 L 63.894531 321.652344 C 66.730469 321.652344 69.410156 320.539062 71.4375 318.523438 Z M 71.4375 318.523438 " fill-opacity="1" fill-rule="evenodd"/><path fill="#000000" d="M 286.855469 276.128906 C 286.855469 273.300781 285.746094 270.636719 283.726562 268.617188 C 279.589844 264.484375 272.847656 264.484375 268.710938 268.617188 C 266.695312 270.636719 265.582031 273.3125 265.582031 276.128906 C 265.582031 278.953125 266.695312 281.621094 268.710938 283.636719 C 270.785156 285.710938 273.496094 286.742188 276.21875 286.742188 C 278.941406 286.742188 281.652344 285.699219 283.726562 283.636719 C 285.746094 281.621094 286.855469 278.953125 286.855469 276.128906 Z M 286.855469 276.128906 " fill-opacity="1" fill-rule="evenodd"/><path fill="#000000" d="M 187.511719 471.292969 C 109.128906 471.292969 38.160156 439.523438 -13.214844 388.148438 C -64.59375 336.773438 -96.363281 265.804688 -96.363281 187.417969 C -96.363281 109.035156 -64.59375 38.066406 -13.214844 -13.308594 C 38.160156 -64.683594 109.128906 -96.457031 187.511719 -96.457031 C 265.894531 -96.457031 336.863281 -64.683594 388.242188 -13.308594 C 439.617188 38.066406 471.386719 109.035156 471.386719 187.417969 C 471.386719 265.804688 439.617188 336.773438 388.242188 388.148438 C 336.863281 439.523438 265.894531 471.292969 187.511719 471.292969 Z M -4.25 379.179688 C 44.820312 428.25 112.625 458.605469 187.511719 458.605469 C 262.398438 458.605469 330.191406 428.25 379.273438 379.179688 C 428.34375 330.109375 458.699219 262.304688 458.699219 187.417969 C 458.699219 112.535156 428.34375 44.738281 379.273438 -4.339844 C 330.203125 -53.410156 262.398438 -83.769531 187.511719 -83.769531 C 112.625 -83.769531 44.832031 -53.410156 -4.25 -4.339844 C -53.320312 44.730469 -83.675781 112.535156 -83.675781 187.417969 C -83.675781 262.304688 -53.316406 330.097656 -4.25 379.179688 Z M -4.25 379.179688 " fill-opacity="1" fill-rule="nonzero"/><g clip-path="url(#982cdf3922)"><path fill="#ffffff" d="M 111.78125 98.785156 C 111.78125 99.671875 111.695312 100.550781 111.519531 101.417969 C 111.347656 102.289062 111.09375 103.132812 110.753906 103.949219 C 110.414062 104.769531 109.996094 105.546875 109.503906 106.285156 C 109.011719 107.023438 108.453125 107.703125 107.828125 108.332031 C 107.199219 108.957031 106.519531 109.515625 105.78125 110.007812 C 105.042969 110.5 104.265625 110.917969 103.445312 111.257812 C 102.628906 111.597656 101.785156 111.851562 100.914062 112.023438 C 100.042969 112.199219 99.167969 112.285156 98.28125 112.285156 C 97.394531 112.285156 96.515625 112.199219 95.648438 112.023438 C 94.777344 111.851562 93.933594 111.597656 93.113281 111.257812 C 92.296875 110.917969 91.515625 110.5 90.78125 110.007812 C 90.042969 109.515625 89.363281 108.957031 88.734375 108.332031 C 88.109375 107.703125 87.546875 107.023438 87.054688 106.285156 C 86.5625 105.546875 86.148438 104.769531 85.808594 103.949219 C 85.46875 103.132812 85.210938 102.289062 85.039062 101.417969 C 84.867188 100.550781 84.78125 99.671875 84.78125 98.785156 C 84.78125 97.898438 84.867188 97.019531 85.039062 96.152344 C 85.210938 95.28125 85.46875 94.4375 85.808594 93.617188 C 86.148438 92.800781 86.5625 92.019531 87.054688 91.285156 C 87.546875 90.546875 88.109375 89.867188 88.734375 89.238281 C 89.363281 88.613281 90.042969 88.050781 90.78125 87.558594 C 91.515625 87.066406 92.296875 86.652344 93.113281 86.3125 C 93.933594 85.972656 94.777344 85.71875 95.648438 85.542969 C 96.515625 85.371094 97.394531 85.285156 98.28125 85.285156 C 99.167969 85.285156 100.042969 85.371094 100.914062 85.542969 C 101.785156 85.71875 102.628906 85.972656 103.445312 86.3125 C 104.265625 86.652344 105.042969 87.066406 105.78125 87.558594 C 106.519531 88.050781 107.199219 88.613281 107.828125 89.238281 C 108.453125 89.867188 109.011719 90.546875 109.503906 91.285156 C 109.996094 92.019531 110.414062 92.800781 110.753906 93.617188 C 111.09375 94.4375 111.347656 95.28125 111.519531 96.152344 C 111.695312 97.019531 111.78125 97.898438 111.78125 98.785156 Z M 111.78125 98.785156 " fill-opacity="1" fill-rule="nonzero"/></g></svg>