<svg xmlns="http://www.w3.org/2000/svg" xmlns:xlink="http://www.w3.org/1999/xlink" width="500" zoomAndPan="magnify" viewBox="0 0 375 374.999991" height="500" preserveAspectRatio="xMidYMid meet" version="1.0"><defs><clipPath id="47c22fb0dc"><path d="M 84.78125 85.285156 L 111.78125 85.285156 L 111.78125 112.285156 L 84.78125 112.285156 Z M 84.78125 85.285156 " clip-rule="nonzero"/></clipPath></defs><path fill="#ffffff" d="M 214.214844 171.960938 L 343.730469 118.296875 C 335.320312 99.304688 323.375 81.859375 308.242188 66.773438 C 293.101562 51.664062 275.640625 39.730469 256.699219 31.320312 L 203.046875 160.78125 C 207.65625 163.480469 211.515625 167.335938 214.214844 171.960938 Z M 214.214844 171.960938 " fill-opacity="1" fill-rule="evenodd"/><path fill="#ffffff" d="M 358.25 187.449219 C 358.25 166.039062 354.34375 145.230469 346.859375 125.859375 L 308.683594 141.675781 C 314.257812 156.296875 317.082031 171.683594 317.082031 187.449219 C 317.082031 215.683594 308.1875 242.390625 291.316406 264.890625 C 293.75 268.132812 295.070312 272.039062 295.070312 276.152344 C 295.070312 281.167969 293.113281 285.882812 289.542969 289.464844 C 285.976562 293.03125 281.25 294.988281 276.242188 294.988281 C 272.144531 294.988281 268.226562 293.667969 264.984375 291.234375 C 242.484375 308.105469 215.777344 317.003906 187.542969 317.003906 C 116.117188 317.003906 58.003906 258.886719 58.003906 187.460938 C 58.003906 159.214844 66.902344 132.511719 83.769531 110.011719 C 81.417969 106.871094 80.027344 102.980469 80.027344 98.761719 C 80.027344 88.390625 88.460938 79.945312 98.84375 79.945312 C 103.058594 79.945312 106.953125 81.335938 110.09375 83.6875 C 132.59375 66.820312 159.296875 57.910156 187.542969 57.910156 C 203.3125 57.910156 218.6875 60.738281 233.320312 66.308594 L 249.121094 28.179688 C 229.726562 20.671875 208.929688 16.746094 187.554688 16.746094 C 93.433594 16.746094 16.851562 93.328125 16.851562 187.449219 C 16.851562 226.472656 30.289062 264.367188 54.78125 294.597656 C 57.5625 293.03125 60.703125 292.199219 63.96875 292.199219 C 68.984375 292.199219 73.714844 294.15625 77.269531 297.734375 C 80.839844 301.304688 82.796875 306.019531 82.796875 311.035156 C 82.796875 314.304688 81.960938 317.441406 80.398438 320.222656 C 110.625 344.714844 148.523438 358.167969 187.542969 358.167969 C 281.667969 358.15625 358.25 281.574219 358.25 187.449219 Z M 358.25 187.449219 " fill-opacity="1" fill-rule="evenodd"/><path fill="#ffffff" d="M 285.09375 259.539062 C 300.679688 238.554688 308.894531 213.714844 308.894531 187.449219 C 308.894531 172.761719 306.273438 158.441406 301.105469 144.816406 L 263.117188 160.558594 C 266.175781 169.109375 267.726562 178.136719 267.726562 187.449219 C 267.726562 231.660156 231.753906 267.636719 187.53125 267.636719 C 143.308594 267.636719 107.335938 231.660156 107.335938 187.449219 C 107.335938 143.226562 143.308594 107.253906 187.53125 107.253906 C 196.847656 107.253906 205.871094 108.804688 214.421875 111.863281 L 230.167969 73.875 C 216.542969 68.707031 202.222656 66.089844 187.53125 66.089844 C 161.253906 66.089844 136.414062 74.316406 115.433594 89.898438 C 116.847656 92.539062 117.644531 95.550781 117.644531 98.738281 C 117.644531 109.117188 109.210938 117.554688 98.832031 117.554688 C 95.632812 117.554688 92.621094 116.753906 89.992188 115.339844 C 74.398438 136.324219 66.183594 161.175781 66.183594 187.4375 C 66.195312 254.371094 120.625 308.800781 187.542969 308.800781 C 213.808594 308.800781 238.660156 300.585938 259.640625 284.992188 C 255.851562 277.878906 256.953125 268.828125 262.945312 262.839844 C 266.511719 259.269531 271.226562 257.300781 276.242188 257.300781 C 279.382812 257.3125 282.40625 258.089844 285.09375 259.539062 Z M 285.09375 259.539062 " fill-opacity="1" fill-rule="evenodd"/><path fill="#ffffff" d="M 187.542969 259.457031 C 227.246094 259.457031 259.550781 227.15625 259.550781 187.460938 C 259.550781 179.234375 258.203125 171.265625 255.550781 163.710938 L 217.363281 179.539062 C 218.035156 182.0625 218.394531 184.726562 218.394531 187.460938 C 218.394531 204.46875 204.5625 218.304688 187.554688 218.304688 C 170.546875 218.304688 156.714844 204.46875 156.714844 187.460938 C 156.714844 170.453125 170.546875 156.621094 187.554688 156.621094 C 190.289062 156.621094 192.941406 156.980469 195.480469 157.652344 L 211.304688 119.464844 C 203.75 116.8125 195.78125 115.46875 187.554688 115.46875 C 147.851562 115.46875 115.550781 147.769531 115.550781 187.472656 C 115.539062 227.15625 147.839844 259.457031 187.542969 259.457031 Z M 187.542969 259.457031 " fill-opacity="1" fill-rule="evenodd"/><path fill="#ffffff" d="M 187.542969 210.101562 C 200.03125 210.101562 210.195312 199.941406 210.195312 187.449219 C 210.195312 174.949219 200.03125 164.800781 187.542969 164.800781 C 175.054688 164.800781 164.894531 174.960938 164.894531 187.449219 C 164.894531 199.941406 175.054688 210.101562 187.542969 210.101562 Z M 187.542969 210.101562 " fill-opacity="1" fill-rule="evenodd"/><path fill="#ffffff" d="M 98.84375 109.375 C 104.695312 109.375 109.464844 104.613281 109.464844 98.75 C 109.464844 92.898438 104.703125 88.125 98.84375 88.125 C 92.992188 88.125 88.21875 92.886719 88.21875 98.75 C 88.21875 104.601562 92.992188 109.375 98.84375 109.375 Z M 98.84375 109.375 " fill-opacity="1" fill-rule="evenodd"/><path fill="#ffffff" d="M 71.476562 318.542969 C 75.613281 314.40625 75.613281 307.664062 71.476562 303.527344 C 67.339844 299.390625 60.597656 299.390625 56.460938 303.527344 C 52.324219 307.664062 52.324219 314.40625 56.460938 318.542969 C 58.441406 320.558594 61.085938 321.660156 63.898438 321.671875 L 63.933594 321.671875 C 66.773438 321.671875 69.449219 320.558594 71.476562 318.542969 Z M 71.476562 318.542969 " fill-opacity="1" fill-rule="evenodd"/><path fill="#ffffff" d="M 286.878906 276.152344 C 286.878906 273.324219 285.765625 270.660156 283.75 268.644531 C 279.617188 264.507812 272.871094 264.507812 268.738281 268.644531 C 266.71875 270.660156 265.609375 273.335938 265.609375 276.152344 C 265.609375 278.976562 266.71875 281.644531 268.738281 283.660156 C 270.808594 285.734375 273.519531 286.765625 276.242188 286.765625 C 278.964844 286.765625 281.679688 285.722656 283.75 283.660156 C 285.765625 281.644531 286.878906 278.976562 286.878906 276.152344 Z M 286.878906 276.152344 " fill-opacity="1" fill-rule="evenodd"/><path fill="#ffffff" d="M 187.542969 471.300781 C 109.164062 471.300781 38.203125 439.535156 -13.167969 388.164062 C -64.539062 336.792969 -96.308594 265.828125 -96.308594 187.449219 C -96.308594 109.074219 -64.539062 38.109375 -13.167969 -13.261719 C 38.203125 -64.632812 109.164062 -96.402344 187.542969 -96.402344 C 265.921875 -96.402344 336.882812 -64.632812 388.253906 -13.261719 C 439.625 38.109375 471.394531 109.074219 471.394531 187.449219 C 471.394531 265.828125 439.625 336.792969 388.253906 388.164062 C 336.882812 439.535156 265.921875 471.300781 187.542969 471.300781 Z M -4.203125 379.195312 C 44.863281 428.261719 112.664062 458.617188 187.542969 458.617188 C 262.421875 458.617188 330.210938 428.261719 379.289062 379.195312 C 428.355469 330.128906 458.707031 262.328125 458.707031 187.449219 C 458.707031 112.570312 428.355469 44.785156 379.289062 -4.292969 C 330.222656 -53.359375 262.421875 -83.714844 187.542969 -83.714844 C 112.664062 -83.714844 44.875 -53.359375 -4.203125 -4.292969 C -53.265625 44.773438 -83.621094 112.570312 -83.621094 187.449219 C -83.621094 262.328125 -53.265625 330.117188 -4.203125 379.195312 Z M -4.203125 379.195312 " fill-opacity="1" fill-rule="nonzero"/><g clip-path="url(#47c22fb0dc)"><path fill="#000000" d="M 111.640625 98.714844 C 111.640625 99.597656 111.554688 100.46875 111.382812 101.335938 C 111.210938 102.199219 110.957031 103.039062 110.617188 103.855469 C 110.28125 104.667969 109.867188 105.441406 109.375 106.175781 C 108.886719 106.910156 108.328125 107.585938 107.707031 108.210938 C 107.082031 108.832031 106.40625 109.390625 105.671875 109.878906 C 104.9375 110.371094 104.164062 110.785156 103.347656 111.121094 C 102.535156 111.460938 101.695312 111.714844 100.832031 111.886719 C 99.964844 112.058594 99.09375 112.144531 98.210938 112.144531 C 97.328125 112.144531 96.457031 112.058594 95.589844 111.886719 C 94.726562 111.714844 93.886719 111.460938 93.070312 111.121094 C 92.257812 110.785156 91.480469 110.371094 90.75 109.878906 C 90.015625 109.390625 89.335938 108.832031 88.714844 108.210938 C 88.089844 107.585938 87.535156 106.910156 87.042969 106.175781 C 86.554688 105.441406 86.140625 104.667969 85.804688 103.855469 C 85.464844 103.039062 85.210938 102.199219 85.039062 101.335938 C 84.867188 100.46875 84.78125 99.597656 84.78125 98.714844 C 84.78125 97.832031 84.867188 96.960938 85.039062 96.09375 C 85.210938 95.230469 85.464844 94.390625 85.804688 93.574219 C 86.140625 92.761719 86.554688 91.984375 87.042969 91.253906 C 87.535156 90.519531 88.089844 89.839844 88.714844 89.21875 C 89.335938 88.59375 90.015625 88.039062 90.75 87.546875 C 91.480469 87.058594 92.257812 86.644531 93.070312 86.308594 C 93.886719 85.96875 94.726562 85.714844 95.589844 85.542969 C 96.457031 85.371094 97.328125 85.285156 98.210938 85.285156 C 99.09375 85.285156 99.964844 85.371094 100.832031 85.542969 C 101.695312 85.714844 102.535156 85.96875 103.347656 86.308594 C 104.164062 86.644531 104.9375 87.058594 105.671875 87.546875 C 106.40625 88.039062 107.082031 88.59375 107.707031 89.21875 C 108.328125 89.839844 108.886719 90.519531 109.375 91.253906 C 109.867188 91.984375 110.28125 92.761719 110.617188 93.574219 C 110.957031 94.390625 111.210938 95.230469 111.382812 96.09375 C 111.554688 96.960938 111.640625 97.832031 111.640625 98.714844 Z M 111.640625 98.714844 " fill-opacity="1" fill-rule="nonzero"/></g></svg>